<?xml version="1.0" encoding="UTF-8" standalone="no"?>
<svg width="1920px" height="140px" viewBox="0 0 1920 140" version="1.1" xmlns="http://www.w3.org/2000/svg" xmlns:xlink="http://www.w3.org/1999/xlink" xmlns:sketch="http://www.bohemiancoding.com/sketch/ns">
    <!-- Generator: Sketch 3.3 (11970) - http://www.bohemiancoding.com/sketch -->
    <title>copyright</title>
    <desc>Created with Sketch.</desc>
    <defs></defs>
    <g id="Page-1" stroke="none" stroke-width="1" fill="none" fill-rule="evenodd" sketch:type="MSPage">
        <g id="Desktop-HD-Copy-2" sketch:type="MSArtboardGroup" transform="translate(0.000000, -3542.000000)" fill="#6AA0E2">
            <g id="copyright" sketch:type="MSLayerGroup" transform="translate(-83.000000, 3542.000000)">
                <path d="M67.3502341,0.551418281 C135.945467,20.9000174 254.856938,57.163883 399.42132,69.2909163 C543.985702,81.4179497 766.100708,42.0978517 855.318916,42.0978513 C944.537124,42.0978508 1003.00451,60.4517337 1023.08948,76.9497874 C1045.80337,56.6374989 1130.30922,45.7252617 1183.79079,45.7252617 C1271.64516,42.0978504 1448.88612,72.9802662 1556.49601,70.7627494 C1682.46925,80.9524036 1925.70581,16.306615 1998.9695,0.551417883 C2072.23318,-15.2037792 1996.29058,520.410969 1996.29058,520.410969 L46.6697856,518.738226 L0.924806163,219.24019 L40.6211029,42.0978514 L67.3502341,0.551418281 Z M1023,88 C1025.20914,88 1027,86.209139 1027,84 C1027,81.790861 1025.20914,80 1023,80 C1020.79086,80 1019,81.790861 1019,84 C1019,86.209139 1020.79086,88 1023,88 Z M1023,130 C1028.52285,130 1033,125.522847 1033,120 C1033,110.131058 1023.95165,112.016681 1023,98.6060925 C1022.18422,112.016681 1013,110.135277 1013,120 C1013,125.522847 1017.47715,130 1023,130 Z M1023,96 C1024.10457,96 1025,95.1045695 1025,94 C1025,92.8954305 1024.10457,92 1023,92 C1021.89543,92 1021,92.8954305 1021,94 C1021,95.1045695 1021.89543,96 1023,96 Z M1018.09838,114.628694 C1018.09838,114.628694 1017.14249,118.453133 1017.7135,120.963795 C1018.2845,123.474457 1019.44056,124.433714 1020.04499,125.386774 C1020.64943,126.339834 1016.73399,123.994305 1016.10041,121.048333 C1015.46682,118.102362 1018.09838,114.628694 1018.09838,114.628694 Z" id="Path-446-Copy" sketch:type="MSShapeGroup"></path>
            </g>
        </g>
    </g>
</svg>