<?xml version="1.0" encoding="utf-8"?>
<!-- Generator: Adobe Illustrator 19.0.0, SVG Export Plug-In . SVG Version: 6.00 Build 0)  -->
<svg version="1.1" id="图层_1" xmlns:sketch="http://www.bohemiancoding.com/sketch/ns"
	 xmlns="http://www.w3.org/2000/svg" xmlns:xlink="http://www.w3.org/1999/xlink" x="0px" y="0px" viewBox="-231 315 149 164"
	 style="enable-background:new -231 315 149 164;" xml:space="preserve">
<style type="text/css">
	.st0{opacity:0.64;enable-background:new    ;}
	.st1{opacity:0.12;fill:#FFFFFF;enable-background:new    ;}
	.st2{opacity:0.24;fill:none;stroke:#FFFFFF;enable-background:new    ;}
	.st3{opacity:0.24;fill:#FFFFFF;enable-background:new    ;}
	.st4{opacity:0.18;fill:none;stroke:#FFFFFF;enable-background:new    ;}
</style>
<title>Polygon 4 Copy 7</title>
<desc>Created with Sketch.</desc>
<g id="Page-1" sketch:type="MSPage">
	<g id="Polygon-4-Copy-7" sketch:type="MSShapeGroup" class="st0">
		<path class="st1" d="M-150.3,319.1l58.3,33.6c3.9,2.2,6.2,6.3,6.2,10.8v67.3c0,4.5-2.4,8.6-6.2,10.8l-58.3,33.7
			c-3.9,2.2-8.6,2.2-12.5,0l-58.2-33.7c-3.9-2.2-6.2-6.3-6.2-10.8v-67.3c0-4.5,2.4-8.6,6.2-10.8l58.2-33.6
			C-158.9,316.9-154.2,316.9-150.3,319.1z"/>
		<path class="st2" d="M-150.3,319.1l58.3,33.6c3.9,2.2,6.2,6.3,6.2,10.8v67.3c0,4.5-2.4,8.6-6.2,10.8l-58.3,33.7
			c-3.9,2.2-8.6,2.2-12.5,0l-58.2-33.7c-3.9-2.2-6.2-6.3-6.2-10.8v-67.3c0-4.5,2.4-8.6,6.2-10.8l58.2-33.6
			C-158.9,316.9-154.2,316.9-150.3,319.1z"/>
	</g>
	<g id="box2-copy-6" sketch:type="MSShapeGroup">
		<path class="st3" d="M-151.2,326l52.3,30.2c3.9,2.2,6.2,6.3,6.2,10.8v60.5c0,4.5-2.4,8.6-6.2,10.8l-52.3,30.2
			c-3.9,2.2-8.6,2.2-12.5,0l-52.4-30.2c-3.9-2.2-6.2-6.3-6.2-10.8V367c0-4.5,2.4-8.6,6.2-10.8l52.4-30.2
			C-159.8,323.8-155.1,323.8-151.2,326z"/>
		<path class="st4" d="M-151.2,326l52.3,30.2c3.9,2.2,6.2,6.3,6.2,10.8v60.5c0,4.5-2.4,8.6-6.2,10.8l-52.3,30.2
			c-3.9,2.2-8.6,2.2-12.5,0l-52.4-30.2c-3.9-2.2-6.2-6.3-6.2-10.8V367c0-4.5,2.4-8.6,6.2-10.8l52.4-30.2
			C-159.8,323.8-155.1,323.8-151.2,326z"/>
	</g>
</g>
</svg>
