<?xml version="1.0" encoding="utf-8"?>
<!-- Generator: Adobe Illustrator 19.0.0, SVG Export Plug-In . SVG Version: 6.00 Build 0)  -->
<svg version="1.1" id="图层_1" xmlns:sketch="http://www.bohemiancoding.com/sketch/ns"
	 xmlns="http://www.w3.org/2000/svg" xmlns:xlink="http://www.w3.org/1999/xlink" x="0px" y="0px" viewBox="-234.5 312 148 170"
	 style="enable-background:new -234.5 312 148 170;" xml:space="preserve">
<style type="text/css">
	.st0{fill:#6AA0E2;}
	.st1{opacity:0.18;}
</style>
<title>Polygon 4 Copy 3</title>
<desc>Created with Sketch.</desc>
<g id="Polygon-4-Copy-3_1_" sketch:type="MSShapeGroup">
	<path class="st0" d="M-155.6,315.4l62.7,36.2c3.3,1.9,5.3,5.4,5.3,9.2v72.4c0,3.8-2,7.3-5.3,9.2l-62.7,36.2
		c-3.3,1.9-7.3,1.9-10.6,0l-62.7-36.2c-3.3-1.9-5.3-5.4-5.3-9.2v-72.4c0-3.8,2-7.3,5.3-9.2l62.7-36.2
		C-162.9,313.5-158.9,313.5-155.6,315.4z"/>
	<g class="st1">
		<path d="M-160.9,320c0.8,0,1.6,0.2,2.3,0.6l62.7,36.2c1.4,0.8,2.3,2.3,2.3,4v72.4c0,1.6-0.9,3.2-2.3,4l-62.7,36.2
			c-0.7,0.4-1.5,0.6-2.3,0.6s-1.6-0.2-2.3-0.6l-62.7-36.2c-1.4-0.8-2.3-2.3-2.3-4v-72.4c0-1.6,0.9-3.2,2.3-4l62.7-36.2
			C-162.5,320.2-161.7,320-160.9,320 M-160.9,314c-1.8,0-3.7,0.5-5.3,1.4l-62.7,36.2c-3.3,1.9-5.3,5.4-5.3,9.2v72.4
			c0,3.8,2,7.3,5.3,9.2l62.7,36.2c1.6,0.9,3.5,1.4,5.3,1.4s3.7-0.5,5.3-1.4l62.7-36.2c3.3-1.9,5.3-5.4,5.3-9.2v-72.4
			c0-3.8-2-7.3-5.3-9.2l-62.7-36.2C-157.2,314.5-159.1,314-160.9,314L-160.9,314z"/>
	</g>
</g>
</svg>
