<?xml version="1.0" encoding="utf-8"?>
<!-- Generator: Adobe Illustrator 19.0.0, SVG Export Plug-In . SVG Version: 6.00 Build 0)  -->
<svg version="1.1" id="图层_1" xmlns:sketch="http://www.bohemiancoding.com/sketch/ns"
	 xmlns="http://www.w3.org/2000/svg" xmlns:xlink="http://www.w3.org/1999/xlink" x="0px" y="0px" viewBox="-273 368 64 57"
	 style="enable-background:new -273 368 64 57;" xml:space="preserve">
<style type="text/css">
	.st0{fill:#6AA0E2;stroke:#5B8CCC;stroke-width:2;}
	.st1{fill:#FFFFFF;fill-opacity:0.48;}
</style>
<title>Polygon 4 Copy 6</title>
<desc>Created with Sketch.</desc>
<g id="Page-1" sketch:type="MSPage">
	<path id="Polygon-4-Copy-6" sketch:type="MSShapeGroup" class="st0" d="M-270.1,393l11.9-20.1c1.1-1.9,3.1-3,5.3-3h24
		c2.2,0,4.2,1.2,5.3,3l11.9,20.1c1.1,1.9,1.1,4.3,0,6.3l-11.9,20.1c-1.1,1.9-3.1,3-5.3,3h-24c-2.2,0-4.2-1.2-5.3-3l-11.9-20.1
		C-271.3,397.3-271.3,394.9-270.1,393z"/>
	<path id="Shape-Copy-2" sketch:type="MSShapeGroup" class="st1" d="M-233.6,402.5c1.7,0,2.3-1.2,1.5-2.6l-7.4-12.8
		c-0.8-1.4-2.2-1.4-3,0l-7.4,12.8c-0.8,1.4-0.2,2.6,1.5,2.6H-233.6z"/>
</g>
</svg>
